<svg width="64" height="64" viewBox="0 0 64 64" fill="none" xmlns="http://www.w3.org/2000/svg">
<g id="social/golfin">
<path id="Vector" d="M32.9289 51.9878C21.1269 51.9878 11.9975 43.0217 11.9975 31.9428C11.9975 20.864 21.1269 11.9961 32.9289 11.9961C38.4232 11.9961 43.6166 14.1119 47.198 17.2841C44.2244 20.611 39.7015 22.1644 35.3394 21.2181C34.5528 21.0485 33.7453 20.9592 32.9289 20.9592C26.5735 20.9592 21.833 25.7948 21.833 31.9398C21.833 38.0849 26.5705 43.0187 32.9289 43.0187C36.9126 43.0187 40.1901 40.5012 41.4981 36.9749H32.9289C34.8478 32.2821 39.4184 29.217 44.4926 29.217H51.9892V31.8387C51.9892 43.2211 43.6166 51.9848 32.9289 51.9848V51.9878Z" fill="white"/>
</g>
</svg>
