<svg width="64" height="64" viewBox="0 0 64 64" fill="none" xmlns="http://www.w3.org/2000/svg">
<g id="social/instagram">
<path id="Vector" d="M41.898 13.0234H22.1021C16.6365 13.0234 12.1841 17.4758 12.1841 22.9414V41.0576C12.1841 46.5231 16.6365 50.9755 22.1021 50.9755H41.898C47.3635 50.9755 51.8159 46.5231 51.8159 41.0576V22.9414C51.8159 17.4758 47.3635 13.0234 41.898 13.0234ZM15.6767 22.9414C15.6767 19.3954 18.5561 16.516 22.1021 16.516H41.898C45.4439 16.516 48.3233 19.3954 48.3233 22.9414V41.0576C48.3233 44.6035 45.4439 47.4829 41.898 47.4829H22.1021C18.5561 47.4829 15.6767 44.6035 15.6767 41.0576V22.9414Z" fill="white"/>
<path id="Vector_2" d="M31.9934 41.2307C37.0856 41.2307 41.2181 37.0849 41.2181 32.006C41.2181 26.9271 37.0856 22.7812 31.9934 22.7812C26.9011 22.7812 22.7686 26.9271 22.7686 32.006C22.7686 37.0849 26.9011 41.2307 31.9934 41.2307ZM31.9934 26.2739C35.1527 26.2739 37.7255 28.8467 37.7255 32.006C37.7255 35.1653 35.1527 37.7381 31.9934 37.7381C28.834 37.7381 26.2612 35.1653 26.2612 32.006C26.2612 28.8467 28.834 26.2739 31.9934 26.2739Z" fill="white"/>
<path id="Vector_3" d="M42.0712 24.263C43.4443 24.263 44.5507 23.1432 44.5507 21.7702C44.5507 20.3971 43.431 19.2773 42.0712 19.2773C40.7115 19.2773 39.5784 20.3971 39.5784 21.7702C39.5784 23.1432 40.6982 24.263 42.0712 24.263Z" fill="white"/>
</g>
</svg>
