<svg width="40" height="34" viewBox="0 0 40 34" fill="none" xmlns="http://www.w3.org/2000/svg">
<g id="Layer_1" clip-path="url(#clip0_391_885)">
<path id="Vector" d="M39.7302 1.38042C39.3232 0.491717 38.4832 -0.00390625 37.3487 -0.00390625C36.526 -0.00390625 35.7986 0.252451 35.712 0.286632C35.4695 0.380629 11.5594 9.39585 1.75631 13.3694C0.898973 13.7197 0.336076 14.2068 0.102257 14.8221C-0.261461 15.7791 0.422675 16.7618 1.07217 17.0524C3.50562 18.112 8.58035 19.5818 10.1651 20.0347C10.6847 21.7522 12.5206 27.7425 13.3693 30.3146C13.5945 30.9811 14.244 31.3827 15.1186 31.3827C15.2485 31.3827 15.3265 31.3742 15.3265 31.3742C15.5603 31.3485 15.7681 31.2289 15.9153 31.058C16.0366 30.9127 16.1232 30.7418 16.1405 30.5453L16.6514 23.3075C17.6127 24.0167 19.0069 25.0507 20.5484 26.1872C23.5967 28.4346 27.2339 31.1093 29.269 32.5534C29.9878 33.0661 30.6892 33.331 31.3474 33.331C32.8196 33.331 33.6682 32.0834 33.9454 31.0238C35.6341 24.5551 38.1021 12.3183 39.583 5.01214L39.9034 3.41419C40.1112 2.40585 39.9294 1.82477 39.7302 1.38897V1.38042ZM14.9627 21.5386L14.5124 27.9646C13.4039 24.4696 11.7759 19.1118 11.7586 19.0434C11.7586 19.0263 11.7326 19.0178 11.7326 18.9921V18.9494L30.4208 6.93482C30.4208 6.93482 31.6938 6.07175 32.1787 5.96921C32.8282 5.82394 32.9841 6.0803 32.8715 6.24266C32.4212 6.84082 30.2735 8.6695 30.2735 8.6695L15.3698 20.8465C15.1359 21.0088 14.9801 21.2481 14.9627 21.5301V21.5386Z" fill="white"/>
</g>
<defs>
<clipPath id="clip0_391_885">
<rect width="39.9917" height="33.3264" fill="white" transform="translate(-0.00166321 -0.00390625)"/>
</clipPath>
</defs>
</svg>
