<svg width="48" height="48" viewBox="0 0 48 48" fill="white" xmlns="http://www.w3.org/2000/svg">
<g clip-path="url(#clip0_57_1788)">
<path d="M20.0064 39.3604V32.1742C20.0064 31.2672 20.8461 30.5346 21.8858 30.5346H26.1242C27.1639 30.5346 28.0036 31.2672 28.0036 32.1742V39.3604C28.0036 40.2674 28.8433 41 29.8829 41H36.1207C37.1603 41 38 40.2674 38 39.3604V23.9589C38 23.5141 37.8001 23.0955 37.4302 22.7815L25.3145 12.4644C24.5848 11.8452 23.4152 11.8452 22.6855 12.4644L10.5698 22.7815C10.2099 23.0868 10 23.5141 10 23.9589V39.3604C10 40.2674 10.8397 41 11.8793 41H18.1171C19.1567 41 19.9964 40.2674 19.9964 39.3604H20.0064Z" fill="white"/>
</g>
<defs>
<clipPath id="clip0_57_1788">
<rect width="48" height="48" fill="white"/>
</clipPath>
</defs>
</svg>
