<svg width="49" height="49" viewBox="0 0 49 49" fill="none" xmlns="http://www.w3.org/2000/svg">
<path d="M24.5547 0H24.4453C11.2207 0 0.5 10.7239 0.5 23.9524V24.0617C0.5 37.2903 11.2207 48.0141 24.4453 48.0141H24.5547C37.7793 48.0141 48.5 37.2903 48.5 24.0617V23.9524C48.5 10.7239 37.7793 0 24.5547 0Z" fill="url(#paint0_linear_72_152)"/>
<path d="M31.9271 9.76831H17.0746C12.9713 9.76831 9.63318 13.1074 9.63318 17.2119V30.8038C9.63318 34.9083 12.9713 38.2474 17.0746 38.2474H31.9271C36.0304 38.2474 39.3685 34.9083 39.3685 30.8038V17.2119C39.3685 13.1074 36.0304 9.76831 31.9271 9.76831ZM12.2583 17.2119C12.2583 14.5558 14.4192 12.3942 17.0746 12.3942H31.9271C34.5825 12.3942 36.7434 14.5558 36.7434 17.2119V30.8038C36.7434 33.46 34.5825 35.6216 31.9271 35.6216H17.0746C14.4192 35.6216 12.2583 33.46 12.2583 30.8038V17.2119Z" fill="white"/>
<path d="M24.5009 30.9301C28.3166 30.9301 31.4226 27.8248 31.4226 24.0063C31.4226 20.1878 28.3183 17.0825 24.5009 17.0825C20.6835 17.0825 17.5791 20.1878 17.5791 24.0063C17.5791 27.8248 20.6835 30.9301 24.5009 30.9301ZM24.5009 19.7101C26.8704 19.7101 28.7975 21.6378 28.7975 24.008C28.7975 26.3782 26.8704 28.3059 24.5009 28.3059C22.1314 28.3059 20.2042 26.3782 20.2042 24.008C20.2042 21.6378 22.1314 19.7101 24.5009 19.7101Z" fill="white"/>
<path d="M32.0633 18.201C33.0908 18.201 33.9283 17.365 33.9283 16.3355C33.9283 15.306 33.0925 14.47 32.0633 14.47C31.0342 14.47 30.1984 15.306 30.1984 16.3355C30.1984 17.365 31.0342 18.201 32.0633 18.201Z" fill="white"/>
<defs>
<linearGradient id="paint0_linear_72_152" x1="7.51258" y1="40.9995" x2="41.4974" y2="7.02633" gradientUnits="userSpaceOnUse">
<stop stop-color="#FAAD4F"/>
<stop offset="0.35" stop-color="#DD2A7B"/>
<stop offset="0.62" stop-color="#9537B0"/>
<stop offset="1" stop-color="#515BD4"/>
</linearGradient>
</defs>
</svg>
