<svg width="48" height="48" viewBox="0 0 48 48" fill="white" xmlns="http://www.w3.org/2000/svg">
<g clip-path="url(#clip0_57_1800)">
<g clip-path="url(#clip1_57_1800)">
<path d="M15.5 31.5C17.7091 31.5 19.5 29.7091 19.5 27.5C19.5 25.2909 17.7091 23.5 15.5 23.5C13.2909 23.5 11.5 25.2909 11.5 27.5C11.5 29.7091 13.2909 31.5 15.5 31.5Z" stroke="white" stroke-width="2" stroke-miterlimit="10"/>
<path d="M31.5 22.5C33.7091 22.5 35.5 20.7091 35.5 18.5C35.5 16.2909 33.7091 14.5 31.5 14.5C29.2909 14.5 27.5 16.2909 27.5 18.5C27.5 20.7091 29.2909 22.5 31.5 22.5Z" stroke="white" stroke-width="2" stroke-miterlimit="10"/>
<path d="M31.5 40.5C33.7091 40.5 35.5 38.7091 35.5 36.5C35.5 34.2909 33.7091 32.5 31.5 32.5C29.2909 32.5 27.5 34.2909 27.5 36.5C27.5 38.7091 29.2909 40.5 31.5 40.5Z" stroke="white" stroke-width="2" stroke-miterlimit="10"/>
<path d="M27.5 20.5L19.5 25.5" stroke="white" stroke-width="3" stroke-miterlimit="10"/>
<path d="M19.5 29.5L27.5 34.5" stroke="white" stroke-width="3" stroke-miterlimit="10"/>
</g>
</g>
<defs>
<clipPath id="clip0_57_1800">
<rect width="48" height="48" fill="white"/>
</clipPath>
<clipPath id="clip1_57_1800">
<rect width="27" height="29" fill="white" transform="translate(10 13)"/>
</clipPath>
</defs>
</svg>
