<svg width="38" height="38" viewBox="0 0 38 38" fill="none" xmlns="http://www.w3.org/2000/svg">
<g id="Group">
<path id="Vector" d="M21.8086 23.0891V22.3958C21.8086 22.0114 21.9771 21.6476 22.286 21.4142C24.0343 20.0757 25.1928 17.7143 25.1928 15.0235C25.1928 10.8499 22.4194 7.47266 19.0001 7.47266C15.5807 7.47266 12.8073 10.8499 12.8073 15.0235C12.8073 17.7143 13.9728 20.0825 15.7141 21.4142C16.023 21.6476 16.1915 22.0183 16.1915 22.3958V23.0891C16.1915 23.7 15.7492 24.2286 15.1313 24.3453C10.9607 25.1347 6.23535 27.0842 6.23535 30.18V31.4911C6.23535 31.4911 10.5324 36.2962 18.9579 36.2962C27.3835 36.2962 31.7648 31.4911 31.7648 31.4911V30.18C31.7648 27.0842 27.0324 25.1347 22.8688 24.3453C22.2509 24.2286 21.8086 23.7 21.8086 23.0891Z" fill="white"/>
<path id="Vector_2" d="M18.9588 0.101562C8.51717 0.101562 0.0588379 8.5599 0.0588379 19.0016C0.0588379 29.4432 8.51717 37.9016 18.9588 37.9016C29.4005 37.9016 37.8588 29.4432 37.8588 19.0016C37.8588 8.5599 29.4005 0.101562 18.9588 0.101562ZM18.9588 33.8649C10.7455 33.8649 4.0955 27.2032 4.0955 19.0016C4.0955 10.7999 10.7572 4.13823 18.9588 4.13823C27.1605 4.13823 33.8222 10.7999 33.8222 19.0016C33.8222 27.2032 27.1605 33.8649 18.9588 33.8649Z" fill="white"/>
</g>
</svg>
