<svg width="48" height="48" viewBox="0 0 48 48" fill="white" xmlns="http://www.w3.org/2000/svg">
<g clip-path="url(#clip0_57_1790)">
<g clip-path="url(#clip1_57_1790)">
<path d="M11.06 18.1908C11.06 19.8693 9.70161 21.2233 8.03352 21.2233C6.36544 21.2233 5 19.8622 5 18.1908C5 16.5193 6.3584 15.1582 8.02649 15.1582C9.69457 15.1582 11.053 16.5193 11.053 18.1908H11.06Z" fill="white"/>
<path d="M43 18.1908C43 19.8693 41.6416 21.2233 39.9735 21.2233C38.3054 21.2233 36.947 19.8622 36.947 18.1908C36.947 16.5193 38.3054 15.1582 39.9735 15.1582C41.6416 15.1582 43 16.5193 43 18.1908Z" fill="white"/>
<path d="M26.9807 11.0326C26.9807 12.7111 25.6223 14.0651 23.9542 14.0651C22.2861 14.0651 20.9277 12.704 20.9277 11.0326C20.9277 9.36113 22.2861 8 23.9542 8C25.6223 8 26.9807 9.36113 26.9807 11.0326Z" fill="white"/>
<path d="M36.9893 22.5703L32.147 23.2685C31.7387 23.3249 31.3235 23.198 31.0138 22.9159L24.8834 17.2739C24.3555 16.7873 23.5391 16.7873 23.0112 17.2739L16.8808 22.9159C16.5782 23.198 16.1559 23.3249 15.7476 23.2685L10.8278 22.5633C9.87062 22.4293 9.06824 23.2897 9.27939 24.2347L12.9745 40.9138C13.1153 41.5485 13.6784 41.9999 14.3259 41.9999H32.893C33.5265 41.9999 34.0755 41.5697 34.2303 40.9561L38.5237 24.2841C38.77 23.3249 37.9677 22.4222 36.9893 22.5633V22.5703Z" fill="white"/>
</g>
</g>
<defs>
<clipPath id="clip0_57_1790">
<rect width="48" height="48" fill="white"/>
</clipPath>
<clipPath id="clip1_57_1790">
<rect width="38" height="34" fill="white" transform="translate(5 8)"/>
</clipPath>
</defs>
</svg>
