<svg width="49" height="49" viewBox="0 0 49 49" fill="none" xmlns="http://www.w3.org/2000/svg">
<path d="M48.4904 24.015C48.4904 36.1365 39.5079 46.1576 27.8388 47.7838C26.7477 47.9351 25.6314 48.0142 24.4983 48.0142C23.1904 48.0142 21.9059 47.9099 20.6551 47.7081C9.23154 45.8684 0.506226 35.9599 0.506226 24.015C0.506226 10.7601 11.2489 0.0141602 24.5 0.0141602C37.751 0.0141602 48.4938 10.7601 48.4938 24.015H48.4904Z" fill="#1C1C1B"/>
<path d="M10.2369 10.5986L21.3024 25.3974L10.168 37.4297H12.6746L22.4238 26.8957L30.3001 37.4297H38.8287L27.1411 21.7986L37.5056 10.5986H34.999L26.0215 20.3002L18.7672 10.5986H10.2386H10.2369ZM13.922 12.4451H17.8392L35.1402 35.5833H31.223L13.922 12.4451Z" fill="white"/>
</svg>
